<svg width="16" height="16" viewBox="0 0 16 16" fill="none" xmlns="http://www.w3.org/2000/svg">
<circle cx="8" cy="8" r="8" fill="#F2B007"/>
<path d="M7.79 2.796H8.822V4.158H7.79V2.796ZM7.79 11.874H8.822V13.236H7.79V11.874ZM8.384 3.936C8.876 3.936 9.306 3.99 9.674 4.098C10.042 4.206 10.338 4.32 10.562 4.44C10.786 4.56 10.922 4.64 10.97 4.68L10.106 6.126C10.042 6.078 9.932 6.008 9.776 5.916C9.624 5.824 9.442 5.742 9.23 5.67C9.022 5.598 8.804 5.562 8.576 5.562C8.268 5.562 8.018 5.618 7.826 5.73C7.638 5.838 7.544 6 7.544 6.216C7.544 6.364 7.594 6.498 7.694 6.618C7.798 6.734 7.954 6.846 8.162 6.954C8.374 7.058 8.642 7.172 8.966 7.296C9.262 7.404 9.54 7.532 9.8 7.68C10.06 7.828 10.288 8.004 10.484 8.208C10.684 8.408 10.842 8.64 10.958 8.904C11.074 9.168 11.132 9.468 11.132 9.804C11.132 10.204 11.05 10.552 10.886 10.848C10.722 11.14 10.498 11.382 10.214 11.574C9.934 11.766 9.614 11.908 9.254 12C8.898 12.096 8.528 12.144 8.144 12.144C7.6 12.144 7.112 12.082 6.68 11.958C6.252 11.834 5.906 11.7 5.642 11.556C5.378 11.412 5.22 11.316 5.168 11.268L6.062 9.762C6.11 9.798 6.202 9.856 6.338 9.936C6.478 10.016 6.648 10.1 6.848 10.188C7.048 10.272 7.26 10.344 7.484 10.404C7.712 10.464 7.936 10.494 8.156 10.494C8.524 10.494 8.8 10.424 8.984 10.284C9.168 10.14 9.26 9.952 9.26 9.72C9.26 9.548 9.202 9.394 9.086 9.258C8.97 9.122 8.796 8.994 8.564 8.874C8.332 8.75 8.042 8.62 7.694 8.484C7.346 8.344 7.02 8.174 6.716 7.974C6.416 7.774 6.172 7.524 5.984 7.224C5.796 6.924 5.702 6.552 5.702 6.108C5.702 5.664 5.826 5.28 6.074 4.956C6.326 4.628 6.656 4.376 7.064 4.2C7.476 4.024 7.916 3.936 8.384 3.936Z" fill="white"/>
</svg>
