<svg width="145" height="26" viewBox="0 0 145 26" fill="none" xmlns="http://www.w3.org/2000/svg">
<path d="M12.053 11.454H23.494V12.882C23.494 14.4913 23.222 15.993 22.678 17.387C22.1453 18.781 21.3803 20.005 20.383 21.059C19.3857 22.113 18.1957 22.9347 16.813 23.524C15.4303 24.1133 13.9003 24.408 12.223 24.408C10.489 24.408 8.91367 24.1133 7.497 23.524C6.09167 22.9233 4.879 22.0903 3.859 21.025C2.839 19.9597 2.057 18.7243 1.513 17.319C0.969 15.9023 0.697 14.3837 0.697 12.763C0.697 11.1537 0.969 9.64633 1.513 8.241C2.057 6.82433 2.839 5.589 3.859 4.535C4.879 3.46967 6.09167 2.64233 7.497 2.053C8.91367 1.45233 10.489 1.152 12.223 1.152C13.6397 1.152 14.8863 1.305 15.963 1.611C17.051 1.917 17.986 2.325 18.768 2.835C19.55 3.345 20.213 3.906 20.757 4.518C21.301 5.11867 21.7543 5.708 22.117 6.286L17.289 8.564C16.8243 7.85 16.1897 7.22667 15.385 6.694C14.5917 6.16133 13.5377 5.895 12.223 5.895C11.305 5.895 10.4607 6.07633 9.69 6.439C8.93067 6.80167 8.27333 7.30033 7.718 7.935C7.16267 8.55833 6.732 9.28933 6.426 10.128C6.13133 10.9553 5.984 11.8337 5.984 12.763C5.984 13.7037 6.13133 14.5877 6.426 15.415C6.732 16.2423 7.16267 16.9733 7.718 17.608C8.27333 18.2427 8.93067 18.7413 9.69 19.104C10.4607 19.4553 11.305 19.631 12.223 19.631C13.0277 19.631 13.7587 19.529 14.416 19.325C15.0733 19.121 15.64 18.8263 16.116 18.441C16.6033 18.0557 16.983 17.6023 17.255 17.081C17.5383 16.5483 17.7083 15.9647 17.765 15.33H12.053V11.454ZM37.259 24V21.739C37.157 21.9657 36.8963 22.2943 36.477 22.725C36.069 23.1557 35.525 23.5467 34.845 23.898C34.165 24.238 33.3716 24.408 32.465 24.408C31.105 24.408 29.915 24.0793 28.895 23.422C27.875 22.7533 27.0816 21.8637 26.515 20.753C25.9483 19.631 25.665 18.39 25.665 17.03C25.665 15.67 25.9483 14.4347 26.515 13.324C27.0816 12.202 27.875 11.3067 28.895 10.638C29.915 9.96933 31.105 9.635 32.465 9.635C33.3376 9.635 34.1026 9.77667 34.76 10.06C35.4173 10.332 35.95 10.6607 36.358 11.046C36.766 11.42 37.0493 11.7657 37.208 12.083V10.043H42.342V24H37.259ZM30.731 17.03C30.731 17.6647 30.8783 18.237 31.173 18.747C31.4676 19.2457 31.8586 19.6367 32.346 19.92C32.8446 20.2033 33.3943 20.345 33.995 20.345C34.6183 20.345 35.168 20.2033 35.644 19.92C36.12 19.6367 36.494 19.2457 36.766 18.747C37.0493 18.237 37.191 17.6647 37.191 17.03C37.191 16.3953 37.0493 15.8287 36.766 15.33C36.494 14.82 36.12 14.4233 35.644 14.14C35.168 13.8453 34.6183 13.698 33.995 13.698C33.3943 13.698 32.8446 13.8453 32.346 14.14C31.8586 14.4233 31.4676 14.82 31.173 15.33C30.8783 15.8287 30.731 16.3953 30.731 17.03ZM51.8774 9.635C52.7954 9.635 53.634 9.71433 54.3934 9.873C55.1527 10.0203 55.7874 10.1903 56.2974 10.383C56.8187 10.5757 57.153 10.7343 57.3004 10.859L55.6174 13.902C55.402 13.7433 54.9997 13.5393 54.4104 13.29C53.8324 13.0407 53.1864 12.916 52.4724 12.916C51.9284 12.916 51.4694 13.001 51.0954 13.171C50.7214 13.3297 50.5344 13.5847 50.5344 13.936C50.5344 14.2873 50.7384 14.5707 51.1464 14.786C51.5657 14.99 52.1664 15.1713 52.9484 15.33C53.6284 15.466 54.3197 15.6813 55.0224 15.976C55.725 16.2707 56.3087 16.707 56.7734 17.285C57.2494 17.8517 57.4874 18.611 57.4874 19.563C57.4874 20.5377 57.2777 21.3423 56.8584 21.977C56.439 22.6117 55.8837 23.1047 55.1924 23.456C54.501 23.8073 53.753 24.051 52.9484 24.187C52.1437 24.3343 51.3617 24.408 50.6024 24.408C49.537 24.408 48.6077 24.3117 47.8144 24.119C47.0324 23.9263 46.3977 23.7053 45.9104 23.456C45.423 23.2067 45.083 23.0083 44.8904 22.861L46.5564 19.461C46.851 19.7103 47.3327 19.9937 48.0014 20.311C48.67 20.617 49.3784 20.77 50.1264 20.77C50.8517 20.77 51.4127 20.6623 51.8094 20.447C52.206 20.2317 52.4044 19.9483 52.4044 19.597C52.4044 19.3137 52.308 19.087 52.1154 18.917C51.9227 18.747 51.6507 18.5997 51.2994 18.475C50.948 18.3503 50.523 18.237 50.0244 18.135C49.571 18.0443 49.0894 17.9027 48.5794 17.71C48.0694 17.5173 47.5877 17.2567 47.1344 16.928C46.681 16.588 46.3127 16.163 46.0294 15.653C45.746 15.143 45.6044 14.5253 45.6044 13.8C45.6044 12.8707 45.9047 12.1 46.5054 11.488C47.106 10.876 47.8824 10.417 48.8344 10.111C49.7864 9.79367 50.8007 9.635 51.8774 9.635ZM58.8083 10.043H61.1883V4.314H66.3053V10.043H69.4333V14.293H66.3053V18.186C66.3053 18.764 66.3903 19.2343 66.5603 19.597C66.7303 19.9483 67.042 20.124 67.4953 20.124C67.8013 20.124 68.062 20.056 68.2773 19.92C68.4926 19.784 68.623 19.6933 68.6683 19.648L70.4363 23.32C70.357 23.388 70.1076 23.5127 69.6883 23.694C69.2803 23.8753 68.759 24.0397 68.1243 24.187C67.4896 24.3343 66.7813 24.408 65.9993 24.408C64.6053 24.408 63.455 24.017 62.5483 23.235C61.6416 22.4417 61.1883 21.2233 61.1883 19.58V14.293H58.8083V10.043Z" fill="#F32C2C"/>
<path d="M88.751 1.56H107.179L96.044 19.546H106.448V24H87.17L98.288 6.014H88.751V1.56ZM112.258 18.118C112.292 18.6167 112.451 19.0587 112.734 19.444C113.017 19.8293 113.408 20.1353 113.907 20.362C114.417 20.5773 115.018 20.685 115.709 20.685C116.366 20.685 116.956 20.617 117.477 20.481C118.01 20.345 118.469 20.175 118.854 19.971C119.251 19.767 119.557 19.5573 119.772 19.342L121.778 22.538C121.495 22.844 121.092 23.1443 120.571 23.439C120.061 23.7223 119.387 23.9547 118.548 24.136C117.709 24.3173 116.65 24.408 115.369 24.408C113.828 24.408 112.456 24.119 111.255 23.541C110.054 22.963 109.107 22.113 108.416 20.991C107.725 19.869 107.379 18.4977 107.379 16.877C107.379 15.517 107.674 14.293 108.263 13.205C108.864 12.1057 109.731 11.2387 110.864 10.604C111.997 9.958 113.363 9.635 114.961 9.635C116.48 9.635 117.794 9.91267 118.905 10.468C120.027 11.0233 120.888 11.8507 121.489 12.95C122.101 14.038 122.407 15.398 122.407 17.03C122.407 17.1207 122.401 17.302 122.39 17.574C122.39 17.846 122.379 18.0273 122.356 18.118H112.258ZM117.545 15.415C117.534 15.0523 117.437 14.6953 117.256 14.344C117.075 13.9813 116.803 13.6867 116.44 13.46C116.077 13.222 115.613 13.103 115.046 13.103C114.479 13.103 113.998 13.2163 113.601 13.443C113.216 13.6583 112.921 13.9417 112.717 14.293C112.513 14.6443 112.4 15.0183 112.377 15.415H117.545ZM132.983 9.635C133.957 9.635 134.909 9.83333 135.839 10.23C136.768 10.6267 137.533 11.2557 138.134 12.117C138.734 12.967 139.035 14.089 139.035 15.483V24H133.85V16.333C133.85 15.3357 133.612 14.5877 133.136 14.089C132.66 13.579 132.036 13.324 131.266 13.324C130.756 13.324 130.274 13.46 129.821 13.732C129.379 13.9927 129.016 14.3667 128.733 14.854C128.461 15.33 128.325 15.8797 128.325 16.503V24H123.157V10.043H128.325V12.1C128.461 11.726 128.744 11.352 129.175 10.978C129.617 10.5927 130.166 10.2753 130.824 10.026C131.492 9.76533 132.212 9.635 132.983 9.635Z" fill="url(#paint0_linear_3_11)"/>
<circle cx="79" cy="16" r="8" fill="#F2B007"/>
<path d="M78.79 10.796H79.822V12.158H78.79V10.796ZM78.79 19.874H79.822V21.236H78.79V19.874ZM79.384 11.936C79.876 11.936 80.306 11.99 80.674 12.098C81.042 12.206 81.338 12.32 81.562 12.44C81.786 12.56 81.922 12.64 81.97 12.68L81.106 14.126C81.042 14.078 80.932 14.008 80.776 13.916C80.624 13.824 80.442 13.742 80.23 13.67C80.022 13.598 79.804 13.562 79.576 13.562C79.268 13.562 79.018 13.618 78.826 13.73C78.638 13.838 78.544 14 78.544 14.216C78.544 14.364 78.594 14.498 78.694 14.618C78.798 14.734 78.954 14.846 79.162 14.954C79.374 15.058 79.642 15.172 79.966 15.296C80.262 15.404 80.54 15.532 80.8 15.68C81.06 15.828 81.288 16.004 81.484 16.208C81.684 16.408 81.842 16.64 81.958 16.904C82.074 17.168 82.132 17.468 82.132 17.804C82.132 18.204 82.05 18.552 81.886 18.848C81.722 19.14 81.498 19.382 81.214 19.574C80.934 19.766 80.614 19.908 80.254 20C79.898 20.096 79.528 20.144 79.144 20.144C78.6 20.144 78.112 20.082 77.68 19.958C77.252 19.834 76.906 19.7 76.642 19.556C76.378 19.412 76.22 19.316 76.168 19.268L77.062 17.762C77.11 17.798 77.202 17.856 77.338 17.936C77.478 18.016 77.648 18.1 77.848 18.188C78.048 18.272 78.26 18.344 78.484 18.404C78.712 18.464 78.936 18.494 79.156 18.494C79.524 18.494 79.8 18.424 79.984 18.284C80.168 18.14 80.26 17.952 80.26 17.72C80.26 17.548 80.202 17.394 80.086 17.258C79.97 17.122 79.796 16.994 79.564 16.874C79.332 16.75 79.042 16.62 78.694 16.484C78.346 16.344 78.02 16.174 77.716 15.974C77.416 15.774 77.172 15.524 76.984 15.224C76.796 14.924 76.702 14.552 76.702 14.108C76.702 13.664 76.826 13.28 77.074 12.956C77.326 12.628 77.656 12.376 78.064 12.2C78.476 12.024 78.916 11.936 79.384 11.936Z" fill="white"/>
<defs>
<linearGradient id="paint0_linear_3_11" x1="116" y1="0" x2="116" y2="26" gradientUnits="userSpaceOnUse">
<stop stop-color="#4CD93F"/>
<stop offset="1" stop-color="#298128"/>
</linearGradient>
</defs>
</svg>
